<?xml version="1.0" encoding="UTF-8"?>
<svg id="_图层_2" data-name="图层 2" xmlns="http://www.w3.org/2000/svg" viewBox="0 0 21.36 21.9">
  <defs>
    <style>
      .cls-1 {
        fill: #040202;
      }

      .cls-2 {
        fill: #aa403b;
      }
    </style>
  </defs>
  <g id="_图层_1-2" data-name="图层 1">
    <g>
      <path class="cls-2" d="M15.44,6.29c1.39-.49,2.57-.73,3.88.13,2.05,1.34,2.64,4.31,1.39,6.38-.56.92-2.48,1.25-2.59,1.64.5,1.13,1.08,2.36.96,3.65-.03.27-1.05,2.72-1.24,2.94-.15.18-1.48.78-1.74.83-.94.21-3.31-.35-4.13-.89-.41-.27-1.42-1.58-1.75-1.51-.3.06-.68.96-1.04,1.23-.15.11-1.51.78-1.66.81-.57.11-2.98-.48-3.49-.81-2.05-1.35-.19-4.88-.33-5.12-.11-.19-2.26-.96-2.54-1.27-.05-.05-.59-1.09-.64-1.22-.26-.72-.63-2.67-.49-3.39.04-.23.66-1.64.81-1.86.16-.25,1.54-1.33,1.74-1.35.9-.1,3.14-.31,3.87.02.23.1.02.58.56.4-.47-2.27-.36-5.22,2.08-6.24,1.52-.63,2.56-1.01,4.06-.21,2.05,1.09,2.81,3.67,2.29,5.83ZM8.93,9.03c-.3.25-1.57,2.3-1.71,2.71-.66,1.89,2.09,3.83,3.77,3.78,3.89-.13,4.59-6.21.81-6.92-.83-.16-2.19-.11-2.86.43Z"/>
      <path class="cls-1" d="M8.93,9.03c.67-.55,2.03-.59,2.86-.43,3.78.72,3.08,6.79-.81,6.92-1.68.06-4.43-1.88-3.77-3.78.14-.41,1.41-2.47,1.71-2.71Z"/>
    </g>
  </g>
</svg>