<?xml version="1.0" encoding="UTF-8"?>
<svg id="_图层_2" data-name="图层 2" xmlns="http://www.w3.org/2000/svg" viewBox="0 0 15.88 16.12">
  <defs>
    <style>
      .cls-1 {
        fill: #040201;
      }

      .cls-2 {
        fill: #a93d38;
      }
    </style>
  </defs>
  <g id="_图层_1-2" data-name="图层 1">
    <g>
      <path class="cls-2" d="M8.04,15.69c-.08-.05-1.37-.14-1.85-.31-1.86-.67-3.65-1.44-4.57-3.24-.19-.37-.32-1.33-.37-1.38-.02-.02-.3.18-.47.13-1.99-.59.43-2.12.48-2.33.49-2.11.28-2.92,1.97-4.77.65-.72,2.71-1.68,2.91-1.92.37-.45.25-1.44,1.44-1.75,2.27-.59,1.7,1.2,2.14,1.56.11.09.71.02,1.01.12,1.51.51,3.74,2.48,4.21,4.02.2.64.14,1.47.36,2.11.13.39.59.49.59,1.08,0,.48-.81,2.73-1.15,3.19-1.48,2.01-3.15,2.86-5.45,3.49.31-.95-.22-2.57,0-3.35.08-.28.99-.31.82-1.67-.26-2.08-3.69-1.58-3.86.43-.1,1.19,1.83,1.36,1.99,1.53.25.28-.15,2.51-.18,3.06ZM8.87,1.71c-.35-.71-1.16-.98-1.44-.1l1.44.1ZM1.88,8.49l3.08-1.75c2.17-.86,5.86-.51,7.95.48.66.31,1.68,1.68,1.92.55-2.05-2.01-5.79-2.23-8.53-1.95-1.28.13-4.25,1.16-4.42,2.67ZM14.62,10.34c.46-.5-.77-1-1.03-1.13-3.35-1.54-8.16-1.57-11.17.75-.23.18-.58.34-.55.68,1.23.13,2.17-1.07,3.29-1.43,2.52-.81,5.81-.69,8.23.41.29.13,1.07.89,1.23.72Z"/>
      <path class="cls-1" d="M8.04,15.69c.04-.55.43-2.78.18-3.06-.15-.17-2.09-.34-1.99-1.53.17-2,3.59-2.51,3.86-.43.17,1.36-.74,1.39-.82,1.67-.22.78.31,2.4,0,3.35-.33.09-.71.49-1.11.43-.2-.04-.11-.41-.13-.43Z"/>
      <path class="cls-1" d="M1.88,8.49c.17-1.51,3.14-2.54,4.42-2.67,2.74-.28,6.48-.06,8.53,1.95-.24,1.13-1.25-.24-1.92-.55-2.1-.99-5.78-1.34-7.95-.48l-3.08,1.75Z"/>
      <path class="cls-1" d="M14.62,10.34c-.16.17-.94-.59-1.23-.72-2.41-1.1-5.71-1.22-8.23-.41-1.12.36-2.06,1.57-3.29,1.43-.02-.35.32-.5.55-.68,3.01-2.33,7.81-2.29,11.17-.75.26.12,1.49.63,1.03,1.13Z"/>
    </g>
  </g>
</svg>