<?xml version="1.0" encoding="UTF-8"?>
<svg id="_图层_2" data-name="图层 2" xmlns="http://www.w3.org/2000/svg" viewBox="0 0 29.41 13.61">
  <defs>
    <style>
      .cls-1 {
        fill: #020101;
      }

      .cls-2 {
        fill: #a93d38;
      }
    </style>
  </defs>
  <g id="_图层_1-2" data-name="图层 1">
    <g>
      <path class="cls-2" d="M3.45,4.11c.52-.75,1.45-.37,2.06-.49.54-.11,1.08-.39,1.59-.48C13.76,1.89,20.48.92,27.19,0c1.29.37.42,1.03.4,1.54-.01.29.86,4.76,1.01,5.29.27.97,1.01.2.76,1.28-.37,1.62-5.35,1.91-6.83,2.22-5.03,1.06-10.2,2.32-15.31,2.99-1.22.16-4.32.54-5.29,0-1.16-.64.04-.88.09-1.72.02-.27-.68-4.57-.77-4.79C1.05,6.34.03,6.63,0,5.91c0-.16.18-1.13.28-1.2.54-.4,2.44-.53,3.17-.59-.65.94.07,2.97.18,4.03.1.96.24,4.75.86,5.21.1.08,2.4-.23,2.2-.87l-1.22-8.23c-.27-.59-1.37-.2-2.01-.15Z"/>
      <path class="cls-2" d="M7.33,3.73c-.3-.04-.83-.16-1.02.09-.51.66,1.07,7.6,1.05,8.92.34.01,1.1.1,1.21-.32l-1.24-8.69Z"/>
      <path class="cls-2" d="M25.22,4.76c-.32-.2-1.46.33-1.69.57-.53.57,1.18,1.9,1.94,1.37.48-.26-.08-1.84-.25-1.94Z"/>
      <path class="cls-2" d="M19.31,6.96c.14.23,1.78.66,1.84-.49.1-1.86-2.56-.67-1.84.49Z"/>
      <path class="cls-2" d="M15.53,6.62c-1.7-.07-1.8,1.29-.41,1.57,1.28.26,1.28-1.53.41-1.57Z"/>
      <path class="cls-2" d="M11.36,8.52c1.68-1.44-.96-1.71-1.44-.92-.29.48.36,1.85,1.44.92Z"/>
      <path class="cls-1" d="M3.45,4.11c.65-.05,1.75-.44,2.01.15l1.22,8.23c.21.64-2.09.95-2.2.87-.62-.47-.76-4.25-.86-5.21-.11-1.06-.83-3.09-.18-4.03Z"/>
      <path class="cls-1" d="M7.33,3.73l1.24,8.69c-.1.43-.87.33-1.21.32.02-1.32-1.56-8.26-1.05-8.92.19-.25.72-.13,1.02-.09Z"/>
      <path class="cls-1" d="M25.22,4.76c.17.1.73,1.68.25,1.94-.75.53-2.47-.8-1.94-1.37.23-.25,1.37-.77,1.69-.57Z"/>
      <path class="cls-1" d="M19.31,6.96c-.72-1.15,1.94-2.35,1.84-.49-.06,1.15-1.7.71-1.84.49Z"/>
      <path class="cls-1" d="M11.36,8.52c-1.08.93-1.73-.44-1.44-.92.48-.8,3.12-.52,1.44.92Z"/>
      <path class="cls-1" d="M15.53,6.62c.86.04.87,1.83-.41,1.57-1.39-.28-1.29-1.64.41-1.57Z"/>
    </g>
  </g>
</svg>