<?xml version="1.0" encoding="UTF-8"?>
<svg id="_图层_2" data-name="图层 2" xmlns="http://www.w3.org/2000/svg" viewBox="0 0 21.52 19.39">
  <defs>
    <style>
      .cls-1 {
        fill: #010001;
      }

      .cls-2 {
        fill: #a93d38;
      }
    </style>
  </defs>
  <g id="_图层_1-2" data-name="图层 1">
    <g>
      <path class="cls-2" d="M10.76,3.12c.38.27,1.21-1.22,1.73-1.46.42-.19.95-.13,1.11-.22.27-.17.28-1.75,1.35-1.38.39.13.52,1.27.77,1.7s.75.71,1.04,1.22c.57.99.23,2.45,1.86,1.58.46-.25.77-1.57,1.8-1.23-.28,1.68.87,3.08,1.03,4.63.71,7.08-4.17,11.88-11.2,11.4C3.59,18.91-.62,14.76.07,7.96c.11-1.05.27-2.21.39-3.31.21-1.92,1.56.66,1.85.83.06.04,1.4-.05,1.45-.11.04-.04,0-.7.19-1.15.53-1.22,2.08-1.93,2.23-2.19.18-.31.02-1.08.48-1.67.96-1.24,1.34,1.04,1.61,1.22.33.21.97-.01,1.45.2.53.23.96,1.28,1.03,1.33ZM7.41,4.41c-1.85.48-2.32,4.86-.14,5.59,4.38,1.48,3.94-6.58.14-5.59ZM15.02,4.82c-2.55-2.05-5.14,5.07-1.29,4.88,2.37-.11,2.75-3.71,1.29-4.88ZM16.16,11.9c2.03,1.72,5.02-1.17,3.48-3.99-.93-1.7-2.51.17-3.21,1.18-.54.78-1.16,2.04-.26,2.8ZM2.88,7.88c-.39.03-1.35.98-1.53,1.35-.89,1.85.57,4.88,2.71,4.58.2-.03,1.46-.76,1.57-.91.76-1.04-.39-1.78-.81-2.52-.3-.52-1.11-2.58-1.95-2.51ZM8.47,12.96c-.08.08-.56.02-.8.12-1.42.62-2.25,1.82-1.76,3.41.38,1.21,3.45,1.42,4.24.72.22-.2.57-.92.7-.93.33-.03.76.81,1.08.97,2.33,1.2,4.66-1.82,2.94-3.97-.69-.86-1.32-.5-1.97-.91-.98-.6-.42-1.79-2.65-1.44-1.9.3-1.51,1.75-1.78,2.02Z"/>
      <path class="cls-1" d="M8.47,12.96c.27-.27-.12-1.72,1.78-2.02,2.23-.35,1.67.84,2.65,1.44.65.4,1.28.05,1.97.91,1.72,2.15-.62,5.17-2.94,3.97-.31-.16-.75-1.01-1.08-.97-.13.01-.48.74-.7.93-.79.7-3.86.49-4.24-.72-.5-1.59.34-2.79,1.76-3.41.24-.1.72-.04.8-.12Z"/>
      <path class="cls-1" d="M7.41,4.41c3.8-.99,4.24,7.07-.14,5.59-2.18-.73-1.71-5.11.14-5.59Z"/>
      <path class="cls-1" d="M2.88,7.88c.84-.07,1.65,1.99,1.95,2.51.42.74,1.57,1.48.81,2.52-.11.15-1.37.88-1.57.91-2.15.3-3.61-2.73-2.71-4.58.18-.38,1.14-1.32,1.53-1.35Z"/>
      <path class="cls-1" d="M15.02,4.82c1.46,1.18,1.08,4.77-1.29,4.88-3.86.19-1.26-6.94,1.29-4.88Z"/>
      <path class="cls-1" d="M16.16,11.9c-.9-.76-.28-2.02.26-2.8.7-1.01,2.28-2.88,3.21-1.18,1.54,2.82-1.44,5.71-3.48,3.99Z"/>
    </g>
  </g>
</svg>