<?xml version="1.0" encoding="UTF-8"?>
<svg id="_图层_2" data-name="图层 2" xmlns="http://www.w3.org/2000/svg" viewBox="0 0 21.13 24.36">
  <defs>
    <style>
      .cls-1 {
        fill: #ac433e;
      }
    </style>
  </defs>
  <g id="_图层_1-2" data-name="图层 1">
    <path class="cls-1" d="M21.01,7.29c.88.86-3.37,1.75-3.75,1.9-.74.28-2.25,1.01-2.8,1.51-.11.1-1.2,1.39-1.24,1.47-.56,1.17-.75,6.31-.84,7.95-.05.91.44,4.23-.71,4.23s-.82-3.76-.94-4.61c-.19-1.37-.56-3.52-.9-4.85-.98-3.81-3.11-4.99-7.01-4.94-.6,0-2.46.61-2.77-.1-.06-.15-.08-.4.13-.51.95-.53,4.02-.54,5.26-1.04.11-.05,1.82-1.16,2.02-1.32,2.08-1.7.71-5.04,2.08-6.56,1.54-1.71,1.53,2.15,1.67,2.8.21,1.02.57,2.23,1.52,2.79s3.39,1.34,4.52,1.44c1.34.12,2.47-.16,3.78-.18Z"/>
  </g>
</svg>