<?xml version="1.0" encoding="UTF-8"?>
<svg id="_图层_2" data-name="图层 2" xmlns="http://www.w3.org/2000/svg" viewBox="0 0 23 19.37">
  <defs>
    <style>
      .cls-1 {
        fill: #030101;
      }

      .cls-2 {
        fill: #a93d38;
      }
    </style>
  </defs>
  <g id="_图层_1-2" data-name="图层 1">
    <g>
      <path class="cls-2" d="M6.58,10.06c-2.05,2.14-8.59.15-5.97-3.81.54-.82,2.38-1.43,2.47-1.55.1-.13-.59-1.78.32-3.06C3.82,1.05,5.35.03,6.08,0c.83-.03,2.89.82,3.48,1.42,1.1,1.13.42,2.63.82,3.29.08.13,2.06,1.7,2.38,1.94.55.41,4.69,3.22,4.98,3.17.37-.06.98-.78,1.88-.79,4.9-.06,4.16,6.32-.3,5.96.83,2.75-.93,4.77-3.79,4.3-.81-.13-2.09-1.3-2.19-2.14-.04-.38.26-1.9.43-2.17.04-.07.62-.24.83-.51.32-.42,1.98-3.2,2.01-3.53.03-.35-.46-1.13-.77-.89-.08.06-.58,1.42-.79,1.78-.52.88-1.12,1.69-1.68,2.53-.25-.51-5.63-3-6.17-4.11.75-.31,2.58-3.14,2.92-3.96.12-.28.31-.87-.15-.97-.76-.16-2.81,4.12-3.39,4.73Z"/>
      <path class="cls-1" d="M7.2,10.27c-.48.19-.72.36-.62-.21.58-.61,2.63-4.89,3.39-4.73.46.1.27.69.15.97-.34.82-2.17,3.66-2.92,3.96Z"/>
      <path class="cls-1" d="M13.78,14.99c-.63.1-.33-.45-.41-.62.56-.85,1.16-1.66,1.68-2.53.21-.36.71-1.72.79-1.78.31-.24.81.54.77.89-.03.33-1.69,3.11-2.01,3.53-.21.27-.79.44-.83.51Z"/>
    </g>
  </g>
</svg>